<?xml version="1.0" encoding="iso-8859-1"?>
<!-- Generator: Adobe Illustrator 19.0.0, SVG Export Plug-In . SVG Version: 6.00 Build 0)  -->
<svg version="1.1" id="Layer_1" xmlns="http://www.w3.org/2000/svg" xmlns:xlink="http://www.w3.org/1999/xlink" x="0px" y="0px"
	 viewBox="0 0 480 480" style="enable-background:new 0 0 480 480;" xml:space="preserve">
<g>
	<g>
		<path d="M472,0H8C3.576,0,0,3.584,0,8v128c0,4.416,3.576,8,8,8h80v296c0,22.056,17.944,40,40,40h224c22.056,0,40-17.944,40-40v-16
			v-32V144h80c4.424,0,8-3.584,8-8V8C480,3.584,476.424,0,472,0z M295.36,16c-3.904,27.096-27.208,48-55.36,48
			s-51.456-20.904-55.36-48H295.36z M376,416h-24v-16h24V416z M464,40h-72v16h72v72h-80c-4.424,0-8,3.584-8,8v248h-32
			c-4.424,0-8,3.584-8,8v32c0,4.416,3.576,8,8,8h32v8c0,13.232-10.768,24-24,24H128c-13.232,0-24-10.768-24-24V136
			c0-4.416-3.576-8-8-8H16V56h72V40H16V16h152.472C172.464,51.944,203,80,240,80s67.536-28.056,71.528-64H464V40z"/>
	</g>
</g>
<g>
	<g>
		<path d="M216,264h-8v-80c0-4.416-3.576-8-8-8h-48c-4.424,0-8,3.584-8,8v32c0,4.416,3.576,8,8,8h8v40h-8c-4.424,0-8,3.584-8,8v32
			c0,4.416,3.576,8,8,8h64c4.424,0,8-3.584,8-8v-32C224,267.584,220.424,264,216,264z M208,296h-48v-16h8c4.424,0,8-3.584,8-8v-56
			c0-4.416-3.576-8-8-8h-8v-16h32v80c0,4.416,3.576,8,8,8h8V296z"/>
	</g>
</g>
<g>
	<g>
		<path d="M336,176h-88c-4.424,0-8,3.584-8,8v120c0,4.416,3.576,8,8,8h88c4.424,0,8-3.584,8-8V184C344,179.584,340.424,176,336,176z
			 M328,296h-72V192h72V296z"/>
	</g>
</g>
<g>
	<g>
		<path d="M304,208h-24c-4.424,0-8,3.584-8,8v56c0,4.416,3.576,8,8,8h24c4.424,0,8-3.584,8-8v-56C312,211.584,308.424,208,304,208z
			 M296,264h-8v-40h8V264z"/>
	</g>
</g>
<g>
	<g>
		<rect x="232" y="120" width="16" height="16"/>
	</g>
</g>
<g>
	<g>
		<rect x="264" y="120" width="16" height="16"/>
	</g>
</g>
<g>
	<g>
		<rect x="200" y="120" width="16" height="16"/>
	</g>
</g>
<g>
</g>
<g>
</g>
<g>
</g>
<g>
</g>
<g>
</g>
<g>
</g>
<g>
</g>
<g>
</g>
<g>
</g>
<g>
</g>
<g>
</g>
<g>
</g>
<g>
</g>
<g>
</g>
<g>
</g>
</svg>
