<?xml version="1.0" encoding="iso-8859-1"?>
<!-- Generator: Adobe Illustrator 19.0.0, SVG Export Plug-In . SVG Version: 6.00 Build 0)  -->
<svg version="1.1" id="Layer_1" xmlns="http://www.w3.org/2000/svg" xmlns:xlink="http://www.w3.org/1999/xlink" x="0px" y="0px"
	 viewBox="0 0 480 480" style="enable-background:new 0 0 480 480;" xml:space="preserve">
<g>
	<g>
		<path d="M467.384,229.632c3-6.728,4.616-14.048,4.616-21.632c0-14.224-5.536-27.6-15.6-37.656c-2.28-2.28-5.584-2.856-8.424-1.808
			c0-0.176,0.024-0.352,0.024-0.536c0-14.224-5.536-27.6-15.6-37.656c-3.128-3.128-8.184-3.128-11.312,0l-79.264,79.272
			C324.144,170.968,285.2,144,240,144s-84.144,26.968-101.816,65.616L58.92,130.344c-3.128-3.128-8.184-3.128-11.312,0
			C37.536,140.4,32,153.776,32,168c0,0.184,0.024,0.36,0.024,0.536c-2.84-1.048-6.144-0.48-8.424,1.808
			C13.536,180.4,8,193.776,8,208c0,7.584,1.616,14.904,4.616,21.632C4.464,239.232,0,251.264,0,264c0,14.224,5.536,27.6,15.6,37.656
			C42.904,328.96,79.208,344,117.824,344h53.128c19.048,14.976,43,24,69.056,24c26.056,0,50.008-9.024,69.056-24h53.128
			c38.608,0,74.912-15.04,102.216-42.344C474.464,291.6,480,278.224,480,264C480,251.264,475.536,239.232,467.384,229.632z
			 M248,160.408c31.52,2.616,58.696,20.52,74.2,46.264l-42.104,24.056L248,211.472V160.408z M270.624,243.704L257.968,288h-35.936
			l-12.656-44.296L240,225.328L270.624,243.704z M232,160.408v51.064l-36.12,21.672c-0.888,0.536-1.6,1.248-2.2,2.04l-39.264-22.44
			C169.128,183.76,198.048,163.224,232,160.408z M117.824,328c-34.336,0-66.632-13.376-90.912-37.656
			C19.872,283.304,16,273.952,16,264c0-7.224,2.048-14.144,5.856-20.088l1.744,1.744l8,8l24,24l11.312-11.312l-24-24l-8-8
			C27.872,227.304,24,217.952,24,208c0-7.224,2.048-14.144,5.856-20.088L47.6,205.656l8,8l16,16l11.312-11.312l-16-16l-8-8
			C51.872,187.304,48,177.952,48,168c0-7.224,2.048-14.144,5.856-20.088l78.288,78.296C129.52,235.712,128,245.672,128,256
			c0,27.408,9.928,52.512,26.336,72H117.824z M144,256c0-9.864,1.504-19.376,4.28-28.344l47.656,27.232l11.08,38.784l-32.408,32.408
			C155.824,308.552,144,283.656,144,256z M240,352c-19.496,0-37.632-5.872-52.792-15.896L219.312,304h41.376l32.104,32.104
			C277.632,346.128,259.496,352,240,352z M305.392,326.08l-32.408-32.408l13.816-48.344l42.512-24.296
			C333.576,231.888,336,243.656,336,256C336,283.656,324.176,308.552,305.392,326.08z M453.088,290.344
			C428.808,314.624,396.512,328,362.176,328h-36.512C342.072,308.512,352,283.408,352,256c0-10.328-1.52-20.288-4.144-29.792
			l78.288-78.296C429.952,153.856,432,160.776,432,168c0,9.952-3.872,19.304-10.912,26.344l-8,8l-16,16l11.312,11.312l16-16l8-8
			l17.744-17.744C453.952,193.856,456,200.776,456,208c0,9.952-3.872,19.304-10.912,26.344l-8,8l-24,24l11.312,11.312l24-24l8-8
			l1.744-1.744C461.952,249.856,464,256.776,464,264C464,273.952,460.128,283.304,453.088,290.344z"/>
	</g>
</g>
<g>
	<g>
		<path d="M240,0C162.44,0,80,19.624,80,56s82.44,56,160,56s160-19.624,160-56S317.56,0,240,0z M240,96C150.784,96,96,72.704,96,56
			s54.784-40,144-40s144,23.296,144,40S329.216,96,240,96z"/>
	</g>
</g>
<g>
	<g>
		<path d="M320.328,36.768C298.816,33.696,270.28,32,240,32c-30.28,0-58.816,1.696-80.328,4.768C131.128,40.84,120,46.232,120,56
			s11.128,15.16,39.672,19.232C181.184,78.304,209.72,80,240,80c30.28,0,58.816-1.696,80.328-4.768C348.872,71.16,360,65.768,360,56
			S348.872,40.84,320.328,36.768z M240,64c-48.864,0-81.168-4.216-96.144-8c14.976-3.784,47.28-8,96.144-8s81.168,4.216,96.144,8
			C321.168,59.784,288.864,64,240,64z"/>
	</g>
</g>
<g>
	<g>
		<path d="M240,432c-58.392,0-128,4.168-128,24c0,19.832,69.608,24,128,24c58.392,0,128-4.168,128-24
			C368,436.168,298.392,432,240,432z M240,464c-52.232,0-86.816-4.184-103.104-8c16.288-3.816,50.864-8,103.104-8
			s86.816,4.184,103.104,8C326.816,459.816,292.232,464,240,464z"/>
	</g>
</g>
<g>
	<g>
		<rect x="232" y="400" width="16" height="16"/>
	</g>
</g>
<g>
	<g>
		<rect x="264" y="400" width="16" height="16"/>
	</g>
</g>
<g>
	<g>
		<rect x="200" y="400" width="16" height="16"/>
	</g>
</g>
<g>
</g>
<g>
</g>
<g>
</g>
<g>
</g>
<g>
</g>
<g>
</g>
<g>
</g>
<g>
</g>
<g>
</g>
<g>
</g>
<g>
</g>
<g>
</g>
<g>
</g>
<g>
</g>
<g>
</g>
</svg>
