<?xml version="1.0" encoding="iso-8859-1"?>
<!-- Generator: Adobe Illustrator 19.0.0, SVG Export Plug-In . SVG Version: 6.00 Build 0)  -->
<svg version="1.1" id="Layer_1" xmlns="http://www.w3.org/2000/svg" xmlns:xlink="http://www.w3.org/1999/xlink" x="0px" y="0px"
	 viewBox="0 0 480 480" style="enable-background:new 0 0 480 480;" xml:space="preserve">
<g>
	<g>
		<path d="M240,104c-61.76,0-112,50.24-112,112s50.24,112,112,112s112-50.24,112-112S301.76,104,240,104z M248,120.408
			c31.52,2.616,58.688,20.52,74.2,46.264l-42.104,24.056L248,171.472V120.408z M270.624,203.704L257.968,248H222.04l-12.656-44.296
			L240,185.328L270.624,203.704z M232,120.408v51.064l-32.096,19.256L157.8,166.672C173.312,140.928,200.48,123.024,232,120.408z
			 M144,216c0-12.344,2.424-24.112,6.688-34.968l42.512,24.296l13.816,48.344l-32.408,32.408C155.824,268.544,144,243.656,144,216z
			 M240,312c-19.496,0-37.624-5.88-52.784-15.904L219.312,264h41.376l32.096,32.096C277.624,306.12,259.496,312,240,312z
			 M305.392,286.08l-32.408-32.408l13.816-48.344l42.512-24.296C333.576,191.888,336,203.656,336,216
			C336,243.656,324.176,268.544,305.392,286.08z"/>
	</g>
</g>
<g>
	<g>
		<path d="M442.544,40.44C418.248,14.36,385.904,0,351.464,0s-66.792,14.36-91.088,40.44L240,62.312l-20.376-21.864
			C195.328,14.36,162.984,0,128.536,0s-66.784,14.36-91.08,40.44c-49.8,53.456-49.8,140.432,0,193.88l196.696,211.128
			C235.664,447.08,237.784,448,240,448s4.336-0.92,5.848-2.544l196.696-211.128C492.344,180.872,492.344,93.896,442.544,40.44z
			 M430.84,223.416L240,428.264L49.16,223.416c-44.192-47.44-44.192-124.632,0-172.072C70.392,28.552,98.584,16,128.536,16
			c29.952,0,58.144,12.552,79.376,35.344l26.224,28.152c3.032,3.248,8.68,3.248,11.712,0l26.224-28.152
			C293.32,28.552,321.504,16,351.464,16c29.96,0,58.144,12.552,79.384,35.344C475.04,98.792,475.04,175.976,430.84,223.416z"/>
	</g>
</g>
<g>
	<g>
		<rect x="232" y="464" width="16" height="16"/>
	</g>
</g>
<g>
	<g>
		<rect x="264" y="464" width="16" height="16"/>
	</g>
</g>
<g>
	<g>
		<rect x="192" y="464" width="16" height="16"/>
	</g>
</g>
<g>
</g>
<g>
</g>
<g>
</g>
<g>
</g>
<g>
</g>
<g>
</g>
<g>
</g>
<g>
</g>
<g>
</g>
<g>
</g>
<g>
</g>
<g>
</g>
<g>
</g>
<g>
</g>
<g>
</g>
</svg>
