<?xml version="1.0" encoding="iso-8859-1"?>
<!-- Generator: Adobe Illustrator 19.0.0, SVG Export Plug-In . SVG Version: 6.00 Build 0)  -->
<svg version="1.1" id="Layer_1" xmlns="http://www.w3.org/2000/svg" xmlns:xlink="http://www.w3.org/1999/xlink" x="0px" y="0px"
	 viewBox="0 0 480 480" style="enable-background:new 0 0 480 480;" xml:space="preserve">
<g>
	<g>
		<path d="M472,8h-32c0-4.424-3.576-8-8-8H48c-4.424,0-8,3.576-8,8H8c-4.424,0-8,3.576-8,8v32c0,4.424,3.576,8,8,8h32
			c0,4.424,3.576,8,8,8h8v208c0,2.328,1.008,4.528,2.776,6.056L72,289.48V344h16v-40.704l16,13.816V368h16v-37.064l16,13.816V400h16
			v-41.432l16,13.816V424h16v-37.792l16,13.816V448h16v-34.16l16,13.816V480h16v-52.344l16-13.816V448h16v-47.976l16-13.816V424h16
			v-51.616l16-13.816V400h16v-55.248l16-13.816V368h16v-50.888l16-13.816V344h16v-54.52l13.224-11.424
			c1.768-1.528,2.776-3.728,2.776-6.056V64h8c4.424,0,8-3.576,8-8h32c4.424,0,8-3.576,8-8V16C480,11.576,476.424,8,472,8z M40,40H16
			V24h24V40z M424,48h-8h-40v16h32v204.336L240,413.432L72,268.336V64h32V48H64h-8V16h368V48z M464,40h-24V24h24V40z"/>
	</g>
</g>
<g>
	<g>
		<path d="M240,72c-61.76,0-112,50.24-112,112s50.24,112,112,112s112-50.24,112-112S301.76,72,240,72z M248,88.408
			c31.52,2.616,58.696,20.52,74.2,46.264l-42.104,24.056L248,139.472V88.408z M270.624,171.704L257.968,216h-35.936l-12.656-44.296
			L240,153.328L270.624,171.704z M232,88.408v51.064l-36.12,21.672c-0.888,0.536-1.6,1.248-2.2,2.04l-39.264-22.44
			C169.128,111.76,198.048,91.224,232,88.408z M144,184c0-9.864,1.504-19.376,4.28-28.344l47.656,27.232l11.08,38.784
			l-32.408,32.408C155.824,236.552,144,211.656,144,184z M240,280c-19.496,0-37.632-5.872-52.792-15.896L219.312,232h41.376
			l32.104,32.104C277.632,274.128,259.496,280,240,280z M305.392,254.08l-32.408-32.408l13.816-48.344l42.512-24.296
			C333.576,159.888,336,171.656,336,184C336,211.656,324.176,236.552,305.392,254.08z"/>
	</g>
</g>
<g>
	<g>
		<rect x="200" y="312" width="16" height="16"/>
	</g>
</g>
<g>
	<g>
		<rect x="232" y="312" width="16" height="16"/>
	</g>
</g>
<g>
	<g>
		<rect x="264" y="312" width="16" height="16"/>
	</g>
</g>
<g>
	<g>
		<rect x="232" y="344" width="16" height="16"/>
	</g>
</g>
<g>
</g>
<g>
</g>
<g>
</g>
<g>
</g>
<g>
</g>
<g>
</g>
<g>
</g>
<g>
</g>
<g>
</g>
<g>
</g>
<g>
</g>
<g>
</g>
<g>
</g>
<g>
</g>
<g>
</g>
</svg>
