<?xml version="1.0" encoding="iso-8859-1"?>
<!-- Generator: Adobe Illustrator 19.0.0, SVG Export Plug-In . SVG Version: 6.00 Build 0)  -->
<svg version="1.1" id="Layer_1" xmlns="http://www.w3.org/2000/svg" xmlns:xlink="http://www.w3.org/1999/xlink" x="0px" y="0px"
	 viewBox="0 0 480 480" style="enable-background:new 0 0 480 480;" xml:space="preserve">
<g>
	<g>
		<path d="M392,296h-40c-28.392,0-51.872-21.264-55.464-48.696c5.8-3.768,11.272-8.128,16.328-13.088
			C332.936,214.496,344,188.144,344,160V56c0-30.88-25.128-56-56-56h-40h-8H104c-4.424,0-8,3.584-8,8v8
			c0,30.816,15.952,57.936,40,73.664v67.152c0,37.384,19.04,70.544,47.576,89.76C180.312,274.36,156.648,296,128,296H88
			c-48.52,0-88,39.48-88,88v96h16v-96c0-39.696,32.296-72,72-72h40c14.928,0,28.808-4.576,40.32-12.384
			c19.344,18.128,44.968,28.448,71.68,28.448s52.336-10.32,71.68-28.448C323.192,307.424,337.072,312,352,312h40
			c39.704,0,72,32.304,72,72v96h16v-96C480,335.48,440.52,296,392,296z M112,16h128h8h40c22.056,0,40,17.944,40,40v86.864
			c-13.768-3.576-24-16-24-30.864V96c0-4.416-3.576-8-8-8H184C144.296,88,112,55.696,112,16z M152,156.816V97.888
			c9.936,3.896,20.704,6.112,32,6.112h104v8c0,23.736,17.336,43.448,40,47.28V160c0,23.816-9.36,46.112-26.352,62.8
			c-16.984,16.672-39.32,25.536-63.296,25.184C190.736,247.112,152,206.216,152,156.816z M240.008,312.064
			c-22.064,0-43.304-8.256-59.544-22.904c8.816-9.4,15.168-21.12,17.944-34.176c12.192,5.552,25.592,8.744,39.648,9
			c0.656,0.016,1.312,0.016,1.968,0.016c14.584,0,28.664-3.064,41.64-8.744c2.808,12.944,9.128,24.568,17.88,33.896
			C283.304,303.8,262.072,312.064,240.008,312.064z"/>
	</g>
</g>
<g>
	<g>
		<path d="M288,168c0,22.056-17.944,40-40,40v16c30.872,0,56-25.12,56-56H288z"/>
	</g>
</g>
<g>
	<g>
		<path d="M224,432h-8v-80c0-4.416-3.576-8-8-8h-48c-4.424,0-8,3.584-8,8v32c0,4.416,3.576,8,8,8h8v40h-8c-4.424,0-8,3.584-8,8v32
			c0,4.416,3.576,8,8,8h64c4.424,0,8-3.584,8-8v-32C232,435.584,228.424,432,224,432z M216,464h-48v-16h8c4.424,0,8-3.584,8-8v-56
			c0-4.416-3.576-8-8-8h-8v-16h32v80c0,4.416,3.576,8,8,8h8V464z"/>
	</g>
</g>
<g>
	<g>
		<path d="M320,432h-8v-80c0-4.416-3.576-8-8-8h-48c-4.424,0-8,3.584-8,8v32c0,4.416,3.576,8,8,8h8v40h-8c-4.424,0-8,3.584-8,8v32
			c0,4.416,3.576,8,8,8h64c4.424,0,8-3.584,8-8v-32C328,435.584,324.424,432,320,432z M312,464h-48v-16h8c4.424,0,8-3.584,8-8v-56
			c0-4.416-3.576-8-8-8h-8v-16h32v80c0,4.416,3.576,8,8,8h8V464z"/>
	</g>
</g>
<g>
</g>
<g>
</g>
<g>
</g>
<g>
</g>
<g>
</g>
<g>
</g>
<g>
</g>
<g>
</g>
<g>
</g>
<g>
</g>
<g>
</g>
<g>
</g>
<g>
</g>
<g>
</g>
<g>
</g>
</svg>
