<svg xmlns="http://www.w3.org/2000/svg" viewBox="156.716 17 304.284 56.569">
  <defs>
    <style>
      .cls-1, .cls-2 {
        fill: #fff;
      }

      .cls-2 {
        font-size: 24px;
        font-family: HelveticaNeue-Light, Helvetica Neue;
        font-weight: 300;
      }
    </style>
  </defs>
  <g id="Group_2" data-name="Group 2" transform="translate(47)">
    <g id="_037-soccer" data-name="037-soccer" transform="translate(298 305.284)">
      <g id="Group_1" data-name="Group 1" transform="translate(-160 -288.284) rotate(45)">
        <path id="Path_1" data-name="Path 1" class="cls-1" d="M23.527,0A16.5,16.5,0,0,0,7.567,12.393L1.318,18.642l.932.932,4.906-4.906a16.657,16.657,0,0,0-.1,1.8c0,.34.014.676.034,1.011L0,24.572l.932.932,6.346-6.346A16.277,16.277,0,0,0,7.8,21.382L0,29.185l.932.932L8.3,22.748a16.441,16.441,0,0,0,1.145,2.263L0,34.456l.932.932,9.261-9.261a16.713,16.713,0,0,0,1.237,1.512L0,39.068.932,40l11.43-11.43a16.587,16.587,0,0,0,1.9,1.512L5.271,39.068,6.2,40l9.2-9.2a16.454,16.454,0,0,0,2.317,1.09l-7.182,7.182.932.932,7.656-7.656a16.349,16.349,0,0,0,2.879.528l-6.2,6.2.932.932,7.062-7.062A16.455,16.455,0,0,0,26.9,32.6l-5.153,5.153.932.932,6.888-6.888A16.47,16.47,0,0,0,23.527,0ZM38.059,12.178,34.946,11.4l1.226-3.268A15.1,15.1,0,0,1,38.059,12.178Zm-2.82-5.313-1.7,4.521-4.676,2.338-4.681-3.511V4.306L27.76,1.923A15.193,15.193,0,0,1,35.239,6.866Zm-7.2,7.881-1.7,5.679H20.723l-1.7-5.679,4.508-3.381ZM23.527,1.318a15.151,15.151,0,0,1,2.461.2L23.527,3.161,21.066,1.521A15.151,15.151,0,0,1,23.527,1.318ZM19.3,1.923l3.573,2.383v5.907l-4.682,3.511-4.676-2.338-1.7-4.521A15.193,15.193,0,0,1,19.3,1.923ZM10.883,8.132,12.109,11.4,9,12.178A15.1,15.1,0,0,1,10.883,8.132Zm.583,17.5a15.1,15.1,0,0,1-2.821-12.01l4.263-1.066,4.8,2.4L19.5,20.929l-3.553,4.146Zm1.019,1.2,3.3-.412.89,3.557A15.226,15.226,0,0,1,12.485,26.836Zm16.378,3.8-.038.038A15.127,15.127,0,0,1,18.2,30.657L17,25.867l3.534-4.123h5.983l3.535,4.124Zm1.521-.651.89-3.557,3.3.412A15.246,15.246,0,0,1,30.384,29.981Zm.726-4.906-3.553-4.146,1.792-5.972,4.8-2.4,4.263,1.066a15.1,15.1,0,0,1-2.821,12.01Z"/>
      </g>
    </g>
    <text id="SOCCER_CHALLENGE" data-name="SOCCER CHALLENGE" class="cls-2" transform="translate(172 54)"><tspan x="0" y="0">SOCCER CHALLENGE</tspan></text>
  </g>
</svg>
