<svg fill="#FFFFFF" xmlns="http://www.w3.org/2000/svg" xmlns:xlink="http://www.w3.org/1999/xlink" version="1.1" x="0px" y="0px" viewBox="0 0 64 64" style="enable-background:new 0 0 64 64;" xml:space="preserve"><path d="M62,27C62,13.215,50.785,2,37,2c-11.649,0-21.461,8.009-24.223,18.809l-9.484,9.484l1.414,1.414l7.446-7.446  C12.055,25.161,12,26.074,12,27c0,0.516,0.021,1.026,0.052,1.534L1.293,39.293l1.414,1.414l9.631-9.631  c0.19,1.153,0.454,2.281,0.797,3.375L1.293,46.293l1.414,1.414L13.89,36.524c0.494,1.193,1.073,2.342,1.738,3.434L1.293,54.293  l1.414,1.414l14.055-14.055c0.582,0.801,1.208,1.568,1.878,2.294L1.293,61.293l1.414,1.414L20.054,45.36  c0.901,0.832,1.862,1.6,2.878,2.294L9.293,61.293l1.414,1.414l13.969-13.969c1.122,0.638,2.296,1.194,3.516,1.655l-10.9,10.9  l1.414,1.414l11.619-11.619c1.411,0.392,2.871,0.664,4.37,0.802l-9.403,9.403l1.414,1.414l10.718-10.718  c1.603-0.027,3.172-0.2,4.689-0.517l-7.821,7.821l1.414,1.414L46.16,50.254C55.425,46.592,62,37.552,62,27z M55.305,40.905  l-6.797-0.85l-5.393-6.292l2.719-9.063l7.283-3.641l6.47,1.618C59.854,24.079,60,25.522,60,27C60,32.222,58.248,37.04,55.305,40.905  z M25.492,40.056l-6.797,0.85C15.752,37.04,14,32.222,14,27c0-1.478,0.146-2.921,0.413-4.322l6.47-1.618l7.283,3.641l2.719,9.063  L25.492,40.056z M14.946,20.483c0.652-2.202,1.624-4.267,2.864-6.141l1.86,4.96L14.946,20.483z M32.744,33l-2.586-8.619L37,19.25  l6.842,5.131L41.256,33H32.744z M54.33,19.302l1.86-4.96c1.24,1.874,2.212,3.939,2.864,6.141L54.33,19.302z M54.774,12.42  l-2.573,6.861l-7.096,3.548L38,17.5V8.535l5.423-3.616C47.929,6.232,51.868,8.884,54.774,12.42z M40.735,4.308L37,6.798l-3.735-2.49  C34.481,4.108,35.728,4,37,4S39.519,4.108,40.735,4.308z M30.577,4.919L36,8.535V17.5l-7.105,5.329l-7.096-3.548l-2.573-6.861  C22.132,8.884,26.071,6.232,30.577,4.919z M20.241,42.728l5.004-0.626l1.35,5.399C24.206,46.284,22.059,44.664,20.241,42.728z   M37,50c-2.845,0-5.57-0.523-8.087-1.472l-1.817-7.27L32.46,35h9.08l5.365,6.259l-1.808,7.23l-0.058,0.058  C42.535,49.484,39.827,50,37,50z M47.406,47.501l1.35-5.399l5.004,0.626C51.941,44.664,49.794,46.284,47.406,47.501z"></path></svg>