<svg fill="#32373A" xmlns="http://www.w3.org/2000/svg" xmlns:xlink="http://www.w3.org/1999/xlink" version="1.1" x="0px" y="0px" viewBox="0 0 48 48" enable-background="new 0 0 48 48" xml:space="preserve"><g><path d="M4,0v48h40V0H4z M12,1c0.553,0,1,0.447,1,1s-0.447,1-1,1s-1-0.447-1-1S11.447,1,12,1z M9,1c0.553,0,1,0.447,1,1   S9.553,3,9,3S8,2.553,8,2S8.447,1,9,1z M6,1c0.553,0,1,0.447,1,1S6.553,3,6,3S5,2.553,5,2S5.447,1,6,1z M43,47H5V4h38V47z"></path><rect x="33" y="8" width="8" height="37"></rect><rect x="10" y="8" width="15" height="2"></rect><rect x="10" y="14" width="17" height="1"></rect><rect x="10" y="12" width="20" height="1"></rect><path d="M30,17H10v15h20V17z M14,18.858c1.183,0,2.143,0.959,2.143,2.143c0,1.184-0.96,2.143-2.143,2.143S11.857,22.185,11.857,21   C11.857,19.817,12.817,18.858,14,18.858z M29,31H11v-3l3.072-2.499l2.889,2.62l7.038-7.039L29,26V31z"></path><rect x="10" y="36" width="17" height="1"></rect><rect x="10" y="42" width="17" height="1"></rect><rect x="10" y="34" width="20" height="1"></rect><rect x="10" y="38" width="20" height="1"></rect><rect x="10" y="40" width="20" height="1"></rect></g></svg>