<svg fill="#32373A" xmlns="http://www.w3.org/2000/svg" xmlns:xlink="http://www.w3.org/1999/xlink" version="1.1" x="0px" y="0px" viewBox="0 0 100 100" style="enable-background:new 0 0 100 100;" xml:space="preserve"><path d="M84.9,25L65.6,5.8C65,5.3,64.3,5,63.6,5h-40c-2.9,0-5.3,2.4-5.3,5.3v42.4c-3,0.6-5.2,3.3-5.2,6.4v23.2  c0,3.2,2.2,5.8,5.2,6.4v0.9c0,2.9,2.4,5.3,5.3,5.3h58c2.9,0,5.3-2.4,5.3-5.3V30C86.9,28.1,86.2,26.4,84.9,25z M64.5,10.3l17.2,17.2  h-16c-0.7,0-1.3-0.6-1.3-1.3V10.3z M17.1,82.4V59.1c0-0.9,0.5-1.7,1.2-2.2c0.4-0.2,0.9-0.4,1.3-0.4h2.1h21.1c1.4,0,2.6,1.2,2.6,2.6  v23.2c0,1.4-1.2,2.6-2.6,2.6H21.8h-2.1c-0.5,0-1-0.1-1.3-0.4C17.6,84.1,17.1,83.3,17.1,82.4z M83.4,89.7c0,1-0.8,1.8-1.8,1.8h-58  c-1,0-1.8-0.8-1.8-1.8v-0.8h21.1c3.6,0,6.6-2.9,6.6-6.6V59.1c0-3.6-2.9-6.6-6.6-6.6H21.8V10.3c0-1,0.8-1.8,1.8-1.8H61v17.8  c0,2.6,2.1,4.7,4.7,4.7h17.7V89.7z M19.4,80.1c0-4,0.9-10,7.9-13.4l-1.1-5.6c-0.1-0.6,0.4-1,1-0.8l14.3,5.5c1.2,0.4,1.6,2.1,0.6,2.9  L30.8,79.4c-0.4,0.4-1.1,0.1-1.2-0.4l-1-5.1c-1.8,1.4-2.5,3.3-2.4,6.4c0,0.9-0.7,1.6-1.6,1.5l-3.9-0.3  C19.9,81.5,19.4,80.8,19.4,80.1z"></path></svg>