<svg fill="#FFFFFF" xmlns="http://www.w3.org/2000/svg" xmlns:xlink="http://www.w3.org/1999/xlink" version="1.1" x="0px" y="0px" viewBox="0 0 64 64" style="enable-background:new 0 0 64 64;" xml:space="preserve"><path d="M22,31v-5c0-0.552-0.448-1-1-1H7c-0.552,0-1,0.448-1,1v5c0,0.552,0.448,1,1,1h14C21.552,32,22,31.552,22,31z M20,30H8v-3h12  V30z"></path><path d="M56.771,24.643l3.901-3.901C61.528,19.886,62,18.747,62,17.536C62,15.035,59.965,13,57.464,13  c-1.211,0-2.351,0.472-3.207,1.329l-6.7,6.7C47.371,21.021,47.188,21,47,21H21h-2H7c-2.757,0-5,2.243-5,5v5c0,2.757,2.243,5,5,5h12  h2h3.051c0.52,8.356,7.465,15,15.949,15h7c8.271,0,15-6.729,15-15C62,31.462,59.966,27.396,56.771,24.643z M55.671,15.743  C56.15,15.264,56.787,15,57.464,15C58.862,15,60,16.138,60,17.536c0,0.677-0.264,1.314-0.743,1.793l-4.1,4.1  c-1.523-0.991-3.231-1.719-5.066-2.105L55.671,15.743z M32.149,34h-7.175C25.609,33.162,26,32.13,26,31v-5  c0-1.13-0.391-2.162-1.026-3h14.574C35.596,25.274,32.781,29.292,32.149,34z M19,34H7c-1.654,0-3-1.346-3-3v-5c0-1.654,1.346-3,3-3  h12h2c1.654,0,3,1.346,3,3v5c0,1.654-1.346,3-3,3H19z M26.051,36H32c0,5.541,3.028,10.378,7.508,12.975  C32.352,48.724,26.555,43.09,26.051,36z M47,49c-7.168,0-13-5.832-13-13s5.832-13,13-13s13,5.832,13,13S54.168,49,47,49z"></path><path d="M47,29c-3.86,0-7,3.14-7,7s3.14,7,7,7s7-3.14,7-7S50.86,29,47,29z M47,41c-2.757,0-5-2.243-5-5s2.243-5,5-5s5,2.243,5,5  S49.757,41,47,41z"></path><circle cx="57" cy="18" r="1.5"></circle><rect x="13" y="12" width="2" height="6"></rect><rect x="17.172" y="16" transform="matrix(0.7071 -0.7071 0.7071 0.7071 -6.163 19.1213)" width="5.657" height="2"></rect><rect x="7" y="14.172" transform="matrix(0.7071 -0.7071 0.7071 0.7071 -9.6777 10.636)" width="2" height="5.657"></rect></svg>