<svg fill="#FFFFFF" xmlns="http://www.w3.org/2000/svg" xmlns:xlink="http://www.w3.org/1999/xlink" version="1.1" x="0px" y="0px" viewBox="0 0 64 64" style="enable-background:new 0 0 64 64;" xml:space="preserve"><path d="M61,19H51v-6.323l9.371-3.748c0.366-0.146,0.611-0.494,0.628-0.887c0.017-0.394-0.199-0.761-0.552-0.937l-10-5  c-0.311-0.154-0.678-0.139-0.973,0.044S49,2.653,49,3v16H36v-6.323l9.371-3.748c0.366-0.146,0.611-0.494,0.628-0.887  c0.017-0.394-0.199-0.761-0.552-0.937l-10-5c-0.311-0.154-0.679-0.139-0.973,0.044C34.18,2.332,34,2.653,34,3v16H21v-6.323  l9.371-3.748c0.366-0.146,0.611-0.494,0.628-0.887c0.017-0.394-0.199-0.761-0.552-0.937l-10-5c-0.311-0.154-0.679-0.139-0.973,0.044  C19.18,2.332,19,2.653,19,3v16H6v-6.323l9.371-3.748c0.366-0.146,0.611-0.494,0.628-0.887c0.017-0.394-0.199-0.761-0.552-0.937  l-10-5C5.137,1.951,4.77,1.967,4.475,2.149S4,2.653,4,3v16H3c-0.553,0-1,0.447-1,1v41c0,0.553,0.447,1,1,1h26h6h26  c0.553,0,1-0.447,1-1V20C62,19.447,61.553,19,61,19z M51,4.618l6.561,3.28L51,10.523V4.618z M36,4.618l6.561,3.28L36,10.523V4.618z   M21,4.618l6.561,3.28L21,10.523V4.618z M6,4.618l6.561,3.28L6,10.523V4.618z M30,60v-4c0-1.103,0.897-2,2-2s2,0.897,2,2v4H30z   M60,60H36v-4c0-2.206-1.794-4-4-4s-4,1.794-4,4v4H4V21h56V60z"></path><rect x="7" y="23" width="2" height="2"></rect><rect x="11" y="23" width="2" height="2"></rect><rect x="15" y="23" width="2" height="2"></rect><rect x="19" y="23" width="2" height="2"></rect><rect x="23" y="23" width="2" height="2"></rect><rect x="27" y="23" width="2" height="2"></rect><rect x="31" y="23" width="2" height="2"></rect><rect x="35" y="23" width="2" height="2"></rect><rect x="39" y="23" width="2" height="2"></rect><rect x="43" y="23" width="2" height="2"></rect><rect x="47" y="23" width="2" height="2"></rect><rect x="51" y="23" width="2" height="2"></rect><rect x="55" y="23" width="2" height="2"></rect><rect x="7" y="27" width="2" height="2"></rect><rect x="11" y="27" width="2" height="2"></rect><rect x="15" y="27" width="2" height="2"></rect><rect x="19" y="27" width="2" height="2"></rect><rect x="23" y="27" width="2" height="2"></rect><rect x="27" y="27" width="2" height="2"></rect><rect x="31" y="27" width="2" height="2"></rect><rect x="35" y="27" width="2" height="2"></rect><rect x="39" y="27" width="2" height="2"></rect><rect x="43" y="27" width="2" height="2"></rect><rect x="47" y="27" width="2" height="2"></rect><rect x="51" y="27" width="2" height="2"></rect><rect x="55" y="27" width="2" height="2"></rect><rect x="7" y="31" width="2" height="2"></rect><rect x="11" y="31" width="2" height="2"></rect><rect x="15" y="31" width="2" height="2"></rect><rect x="19" y="31" width="2" height="2"></rect><rect x="23" y="31" width="2" height="2"></rect><rect x="27" y="31" width="2" height="2"></rect><rect x="31" y="31" width="2" height="2"></rect><rect x="35" y="31" width="2" height="2"></rect><rect x="39" y="31" width="2" height="2"></rect><rect x="43" y="31" width="2" height="2"></rect><rect x="47" y="31" width="2" height="2"></rect><rect x="51" y="31" width="2" height="2"></rect><rect x="55" y="31" width="2" height="2"></rect><rect x="7" y="35" width="2" height="2"></rect><rect x="11" y="35" width="2" height="2"></rect><rect x="15" y="35" width="2" height="2"></rect><rect x="19" y="35" width="2" height="2"></rect><rect x="23" y="35" width="2" height="2"></rect><rect x="27" y="35" width="2" height="2"></rect><rect x="31" y="35" width="2" height="2"></rect><rect x="35" y="35" width="2" height="2"></rect><rect x="39" y="35" width="2" height="2"></rect><rect x="43" y="35" width="2" height="2"></rect><rect x="47" y="35" width="2" height="2"></rect><rect x="51" y="35" width="2" height="2"></rect><rect x="55" y="35" width="2" height="2"></rect><rect x="7" y="39" width="2" height="2"></rect><rect x="11" y="39" width="2" height="2"></rect><rect x="15" y="39" width="2" height="2"></rect><rect x="19" y="39" width="2" height="2"></rect><rect x="23" y="39" width="2" height="2"></rect><rect x="27" y="39" width="2" height="2"></rect><rect x="31" y="39" width="2" height="2"></rect><rect x="35" y="39" width="2" height="2"></rect><rect x="39" y="39" width="2" height="2"></rect><rect x="43" y="39" width="2" height="2"></rect><rect x="47" y="39" width="2" height="2"></rect><rect x="51" y="39" width="2" height="2"></rect><rect x="55" y="39" width="2" height="2"></rect><rect x="7" y="43" width="2" height="2"></rect><rect x="11" y="43" width="2" height="2"></rect><rect x="15" y="43" width="2" height="2"></rect><rect x="19" y="43" width="2" height="2"></rect><rect x="23" y="43" width="2" height="2"></rect><rect x="27" y="43" width="2" height="2"></rect><rect x="31" y="43" width="2" height="2"></rect><rect x="35" y="43" width="2" height="2"></rect><rect x="39" y="43" width="2" height="2"></rect><rect x="43" y="43" width="2" height="2"></rect><rect x="47" y="43" width="2" height="2"></rect><rect x="51" y="43" width="2" height="2"></rect><rect x="11" y="47" width="2" height="2"></rect><rect x="19" y="47" width="2" height="2"></rect><rect x="27" y="47" width="2" height="2"></rect><rect x="35" y="47" width="2" height="2"></rect><rect x="43" y="47" width="2" height="2"></rect><rect x="51" y="47" width="2" height="2"></rect><rect x="55" y="43" width="2" height="2"></rect></svg>