<svg fill="#FFFFFF" xmlns="http://www.w3.org/2000/svg" xmlns:xlink="http://www.w3.org/1999/xlink" version="1.1" x="0px" y="0px" viewBox="0 0 64 64" style="enable-background:new 0 0 64 64;" xml:space="preserve"><path d="M51.366,32.926C51.737,32.78,52,32.423,52,32V9c0-0.433-0.278-0.816-0.688-0.95c-0.412-0.135-0.861,0.01-1.118,0.359  L40.28,21.927L32.935,2.644C32.787,2.256,32.415,2,32,2s-0.787,0.256-0.935,0.644L23.72,21.927L13.807,8.409  C13.55,8.06,13.1,7.914,12.688,8.05C12.278,8.184,12,8.567,12,9v23c0,0.422,0.263,0.78,0.634,0.926C11.553,35.496,11,38.205,11,41  c0,11.58,9.421,21,21,21s21-9.42,21-21C53,38.205,52.447,35.496,51.366,32.926z M38,36.882l-5-2.5V33h10v1.382L38,36.882z   M35.198,46h-6.396l-1.656-7.455L32,36.118l4.854,2.427L35.198,46z M26,36.882l-5-2.5V33h10v1.382L26,36.882z M19,34.382  l-5.598,2.799c0.297-1.431,0.749-2.83,1.38-4.181H19V34.382z M45,33h4.218c0.631,1.351,1.084,2.75,1.38,4.181L45,34.382V33z   M14,12.055l9.193,12.537c0.217,0.294,0.57,0.446,0.94,0.4c0.363-0.049,0.67-0.293,0.801-0.635L32,5.809l7.065,18.547  c0.131,0.342,0.438,0.586,0.801,0.635c0.371,0.048,0.724-0.105,0.94-0.4L50,12.055V31h-0.157H14.157H14V12.055z M13.077,39.58  L20,36.118l5.127,2.563l1.778,8L23.586,50h-8.313C13.825,47.319,13,44.255,13,41C13,40.522,13.042,40.052,13.077,39.58z M16.537,52  h6.33l-0.657,5.253C19.979,55.904,18.047,54.117,16.537,52z M24.1,58.258l0.849-6.794L28.414,48h7.172l3.464,3.464l0.849,6.794  C37.49,59.365,34.821,60,32,60S26.51,59.365,24.1,58.258z M41.789,57.253L41.133,52h6.33C45.953,54.117,44.021,55.904,41.789,57.253  z M48.727,50h-8.313l-3.319-3.319l1.778-8L44,36.118l6.923,3.461C50.958,40.052,51,40.522,51,41C51,44.255,50.175,47.319,48.727,50z  "></path><path d="M32,25c1.683,0,3-1.757,3-4s-1.317-4-3-4s-3,1.757-3,4S30.317,25,32,25z M32,19c0.408,0,1,0.779,1,2s-0.592,2-1,2  s-1-0.779-1-2S31.592,19,32,19z"></path><rect x="34" y="27" width="2" height="2"></rect><rect x="38" y="27" width="2" height="2"></rect><rect x="42" y="27" width="2" height="2"></rect><rect x="46" y="27" width="2" height="2"></rect><rect x="16" y="27" width="2" height="2"></rect><rect x="20" y="27" width="2" height="2"></rect><rect x="24" y="27" width="2" height="2"></rect><rect x="28" y="27" width="2" height="2"></rect></svg>