<svg fill="#FFFFFF" xmlns="http://www.w3.org/2000/svg" xmlns:xlink="http://www.w3.org/1999/xlink" version="1.1" x="0px" y="0px" viewBox="0 0 64 64" style="enable-background:new 0 0 64 64;" xml:space="preserve"><path d="M61,3h-4c0-0.553-0.447-1-1-1H8C7.447,2,7,2.447,7,3H3C2.447,3,2,3.447,2,4v4c0,0.553,0.447,1,1,1h4c0,0.553,0.447,1,1,1h1  v26c0,0.291,0.126,0.566,0.347,0.757L11,38.185V45h2v-5.088l2,1.727V48h2v-4.633l2,1.727V52h2v-5.179l2,1.727V55h2v-4.724l2,1.727  V58h2v-4.27l2,1.727V62h2v-6.543l2-1.727V58h2v-5.997l2-1.727V55h2v-6.452l2-1.727V52h2v-6.906l2-1.727V48h2v-6.361l2-1.727V45h2  v-6.815l1.653-1.428C54.874,36.566,55,36.291,55,36V10h1c0.553,0,1-0.447,1-1h4c0.553,0,1-0.447,1-1V4C62,3.447,61.553,3,61,3z M4,7  V5h3v2H4z M54,8h-5v2h4v25.542L32,53.679L11,35.542V10h4V8h-5H9V4h46v4H54z M60,7h-3V5h3V7z"></path><path d="M32,11c-7.72,0-14,6.28-14,14s6.28,14,14,14s14-6.28,14-14S39.72,11,32,11z M42.275,18.834l-5.263,3.007L33,19.434v-6.383  C36.94,13.378,40.337,15.616,42.275,18.834z M34.246,29h-4.492l-1.582-5.537L32,21.166l3.828,2.297L34.246,29z M31,13.051v6.383  l-4.515,2.709c-0.111,0.067-0.2,0.156-0.275,0.255l-4.908-2.805C23.141,15.97,26.756,13.403,31,13.051z M20,25  c0-1.233,0.188-2.422,0.535-3.543l5.957,3.404l1.385,4.848l-4.051,4.051C21.478,31.569,20,28.457,20,25z M25.401,35.013L29.414,31  h5.172l4.013,4.013C36.704,36.266,34.437,37,32,37S27.296,36.266,25.401,35.013z M40.174,33.76l-4.051-4.051l1.727-6.043  l5.314-3.037C43.697,21.986,44,23.457,44,25C44,28.457,42.522,31.569,40.174,33.76z"></path><rect x="27" y="41" width="2" height="2"></rect><rect x="31" y="41" width="2" height="2"></rect><rect x="35" y="41" width="2" height="2"></rect><rect x="31" y="45" width="2" height="2"></rect></svg>