<svg fill="#FFFFFF" xmlns="http://www.w3.org/2000/svg" xmlns:xlink="http://www.w3.org/1999/xlink" version="1.1" x="0px" y="0px" viewBox="0 0 64 64" style="enable-background:new 0 0 64 64;" xml:space="preserve"><path d="M16.707,35.293L16.707,35.293L13,31.586V19.5c0-1.93-1.57-3.5-3.5-3.5S6,17.57,6,19.5v22c0,0.224,0.075,0.44,0.213,0.616  L15,53.345V62h2v-9c0-0.224-0.075-0.44-0.213-0.616L8,41.155V19.5C8,18.673,8.673,18,9.5,18s1.5,0.673,1.5,1.5V32  c0,0.265,0.105,0.52,0.293,0.707l1.464,1.464C11.17,34.638,10,36.092,10,37.829c0,1.022,0.398,1.983,1.121,2.707l6.172,6.171  l1.414-1.414l-6.172-6.171C12.19,38.776,12,38.317,12,37.829C12,36.82,12.82,36,13.828,36c0.481,0,0.952,0.195,1.293,0.536  L24,45.414V62h2V45c0-0.265-0.105-0.52-0.293-0.707L16.707,35.293z"></path><path d="M54.5,16c-1.93,0-3.5,1.57-3.5,3.5v12.086l-3.707,3.707l0,0l-9,9C38.105,44.48,38,44.735,38,45v17h2V45.414l8.707-8.707  l0.172-0.172C49.22,36.195,49.69,36,50.172,36C51.18,36,52,36.82,52,37.829c0,0.488-0.19,0.948-0.535,1.293l-6.172,6.171  l1.414,1.414l6.172-6.172C53.602,39.812,54,38.851,54,37.829c0-1.737-1.17-3.19-2.757-3.657l1.464-1.464  C52.895,32.52,53,32.265,53,32V19.5c0-0.827,0.673-1.5,1.5-1.5s1.5,0.673,1.5,1.5v21.655l-8.787,11.229  C47.075,52.56,47,52.776,47,53v9h2v-8.655l8.787-11.229C57.925,41.94,58,41.724,58,41.5v-22C58,17.57,56.43,16,54.5,16z"></path><path d="M46,22c0-7.72-6.28-14-14-14s-14,6.28-14,14s6.28,14,14,14S46,29.72,46,22z M40.174,30.76l-4.051-4.051l1.727-6.044  l5.314-3.036C43.697,18.986,44,20.457,44,22C44,25.457,42.522,28.569,40.174,30.76z M28.172,20.463L32,18.166l3.828,2.297L34.246,26  h-4.492L28.172,20.463z M42.275,15.834l-5.263,3.007L33,16.434v-6.383C36.94,10.378,40.337,12.616,42.275,15.834z M31,10.051v6.383  l-4.012,2.407l-5.263-3.007C23.663,12.616,27.06,10.378,31,10.051z M20,22c0-1.543,0.303-3.014,0.836-4.371l5.314,3.036l1.727,6.044  l-4.051,4.051C21.478,28.569,20,25.457,20,22z M25.402,32.012L29.414,28h5.172l4.012,4.012C36.703,33.265,34.437,34,32,34  S27.297,33.265,25.402,32.012z"></path><path d="M35.241,4.292c-0.704-0.128-1.426-0.215-2.145-0.258L32.976,6.03c0.64,0.039,1.282,0.116,1.908,0.23L35.241,4.292z"></path><path d="M31.054,6.027L30.937,4.03c-0.718,0.042-1.439,0.127-2.145,0.254l0.354,1.969C29.773,6.141,30.415,6.064,31.054,6.027z"></path><path d="M43.057,7.799c-0.565-0.442-1.165-0.854-1.779-1.225l-1.033,1.713c0.547,0.329,1.079,0.695,1.582,1.088L43.057,7.799z"></path><path d="M46.116,10.838c-0.446-0.563-0.931-1.105-1.439-1.61l-1.409,1.419c0.453,0.449,0.884,0.931,1.28,1.433L46.116,10.838z"></path><path d="M39.362,5.571c-0.657-0.295-1.337-0.553-2.021-0.765l-0.594,1.91c0.608,0.188,1.212,0.417,1.795,0.679L39.362,5.571z"></path><path d="M27.281,6.708l-0.59-1.911c-0.689,0.213-1.37,0.47-2.024,0.762l0.818,1.825C26.064,7.125,26.669,6.897,27.281,6.708z"></path><path d="M23.781,8.271l-1.029-1.714c-0.616,0.37-1.216,0.781-1.782,1.221l1.227,1.579C22.701,8.966,23.234,8.601,23.781,8.271z"></path><path d="M20.753,10.625l-1.406-1.421c-0.511,0.505-0.996,1.046-1.442,1.608l1.566,1.244C19.867,11.557,20.299,11.076,20.753,10.625z  "></path><path d="M38.553,36.596c-0.584,0.264-1.191,0.494-1.804,0.685l0.594,1.909c0.69-0.215,1.374-0.474,2.032-0.771L38.553,36.596z"></path><path d="M32.958,37.972l0.119,1.996c0.723-0.042,1.448-0.13,2.157-0.259l-0.359-1.968C34.245,37.856,33.601,37.934,32.958,37.972z"></path><path d="M24.607,38.411c0.658,0.297,1.341,0.557,2.029,0.773l0.598-1.908c-0.612-0.192-1.219-0.423-1.803-0.687L24.607,38.411z"></path><path d="M28.747,39.705c0.708,0.13,1.434,0.218,2.157,0.262l0.121-1.996c-0.644-0.039-1.289-0.118-1.917-0.232L28.747,39.705z"></path></svg>